<svg width="21" height="21" viewBox="0 0 21 21" fill="none" xmlns="http://www.w3.org/2000/svg">
<path d="M14.2606 2.28906H8.54474H8.10183L7.78884 2.60201L3.46187 6.92925L3.14893 7.2422V7.68491V16.6061C3.14893 18.1974 4.44346 19.4921 6.03501 19.4921H14.2606C15.8516 19.4921 17.1462 18.1974 17.1462 16.6061V5.17514C17.1462 3.58359 15.8516 2.28906 14.2606 2.28906ZM16.0778 16.6061C16.0778 17.6099 15.2642 18.4235 14.2606 18.4235H6.03501C5.03091 18.4235 4.21733 17.6099 4.21733 16.6061V7.68487H7.03016C7.86629 7.68487 8.54474 7.0069 8.54474 6.17054V3.35767H14.2606C15.2642 3.35767 16.0778 4.17125 16.0778 5.17514V16.6061Z" fill="black"/>
<path d="M7.32512 10.7812H6.36655C6.18404 10.7812 6.07471 10.9 6.07471 11.0778V13.5559C6.07471 13.7705 6.21596 13.912 6.41208 13.912C6.60397 13.912 6.74519 13.7705 6.74519 13.5559V12.803C6.74519 12.7847 6.75456 12.7756 6.77288 12.7756H7.32512C8.00031 12.7756 8.40663 12.3648 8.40663 11.7806C8.40666 11.1873 8.00501 10.7812 7.32512 10.7812ZM7.28386 12.1959H6.77288C6.75456 12.1959 6.74519 12.1868 6.74519 12.1687V11.3882C6.74519 11.3698 6.75456 11.3607 6.77288 11.3607H7.28386C7.56677 11.3607 7.73568 11.5296 7.73568 11.7807C7.73571 12.0317 7.56677 12.1959 7.28386 12.1959Z" fill="black"/>
<path d="M9.95288 10.7812H9.21812C9.0356 10.7812 8.92627 10.9 8.92627 11.0778V13.5925C8.92627 13.7705 9.03557 13.8846 9.21812 13.8846H9.95288C10.6145 13.8846 11.0255 13.6746 11.1897 13.1681C11.2488 12.99 11.2812 12.7756 11.2812 12.3329C11.2812 11.8902 11.2488 11.6758 11.1897 11.4977C11.0254 10.9912 10.6145 10.7812 9.95288 10.7812ZM10.5464 12.9354C10.4685 13.1817 10.2452 13.2868 9.93456 13.2868H9.62444C9.60613 13.2868 9.59675 13.2776 9.59675 13.2594V11.4065C9.59675 11.3882 9.60613 11.379 9.62444 11.379H9.93456C10.2452 11.379 10.4685 11.4841 10.5464 11.7305C10.5783 11.8356 10.6008 12.0181 10.6008 12.3329C10.6008 12.6477 10.5783 12.8303 10.5464 12.9354Z" fill="black"/>
<path d="M13.6813 10.7812H12.1756C11.9931 10.7812 11.8833 10.9 11.8833 11.0778V13.5559C11.8833 13.7705 12.025 13.912 12.2211 13.912C12.4126 13.912 12.5543 13.7705 12.5543 13.5559V12.6705C12.5543 12.6524 12.5632 12.6433 12.5815 12.6433H13.458C13.6541 12.6433 13.7681 12.5246 13.7681 12.3557C13.7681 12.1867 13.6541 12.0683 13.458 12.0683H12.5815C12.5632 12.0683 12.5543 12.0591 12.5543 12.0408V11.3882C12.5543 11.3698 12.5632 11.3607 12.5815 11.3607H13.6813C13.8685 11.3607 13.9919 11.2376 13.9919 11.0734C13.9919 10.9044 13.8685 10.7812 13.6813 10.7812Z" fill="black"/>
</svg>
