<svg width="38" height="38" viewBox="0 0 38 38" fill="none" xmlns="http://www.w3.org/2000/svg">
<rect width="38" height="38" rx="6" fill="#F59321"/>
<path d="M20.8281 13.1517C20.8281 14.161 20.0099 14.9792 19.0006 14.9792C17.9914 14.9792 17.1732 14.161 17.1732 13.1517C17.1732 12.1424 17.9914 11.3242 19.0006 11.3242C20.0099 11.3242 20.8281 12.1424 20.8281 13.1517Z" fill="white"/>
<path d="M20.8281 18.9994C20.8281 20.0086 20.0099 20.8268 19.0006 20.8268C17.9914 20.8268 17.1732 20.0086 17.1732 18.9994C17.1732 17.9901 17.9914 17.1719 19.0006 17.1719C20.0099 17.1719 20.8281 17.9901 20.8281 18.9994Z" fill="white"/>
<path d="M19.0006 26.6745C20.0099 26.6745 20.8281 25.8563 20.8281 24.847C20.8281 23.8377 20.0099 23.0195 19.0006 23.0195C17.9914 23.0195 17.1732 23.8377 17.1732 24.847C17.1732 25.8563 17.9914 26.6745 19.0006 26.6745Z" fill="white"/>
</svg>
