<svg width="13" height="14" viewBox="0 0 13 14" fill="none" xmlns="http://www.w3.org/2000/svg">
<path fill-rule="evenodd" clip-rule="evenodd" d="M0.868957 2.29533C1.06666 1.96799 2.15594 0.777353 2.93326 0.813297C3.16562 0.832552 3.37103 0.973118 3.53792 1.13615C3.92112 1.51035 5.0181 2.92563 5.08037 3.22345C5.23185 3.95388 4.36145 4.37494 4.62784 5.11114C5.30695 6.7729 6.47711 7.943 8.13959 8.62144C8.87519 8.8878 9.29627 8.01745 10.0267 8.16957C10.3239 8.23183 11.7399 9.32876 12.1141 9.71194C12.2765 9.87818 12.4178 10.0842 12.437 10.3166C12.4659 11.1349 11.2014 12.2396 10.9549 12.3808C10.3734 12.7967 9.61464 12.7896 8.68969 12.3596C6.10867 11.2858 1.98391 7.23888 0.890139 4.56043C0.47163 3.64066 0.442745 2.87685 0.868957 2.29533Z" stroke="#EAEEFB" stroke-width="1.125" stroke-linecap="round" stroke-linejoin="round"/>
</svg>
