<svg width="14" height="15" viewBox="0 0 14 15" fill="none" xmlns="http://www.w3.org/2000/svg">
<path fill-rule="evenodd" clip-rule="evenodd" d="M9.81792 0C10.1051 0 10.3382 0.223131 10.3382 0.49806L10.3385 1.06107C11.3513 1.12755 12.1925 1.45968 12.7878 2.03082C13.4378 2.65572 13.7797 3.55422 13.7763 4.63202V10.6904C13.7763 12.9031 12.3085 14.2778 9.9466 14.2778H4.07967C1.71777 14.2778 0.25 12.8839 0.25 10.64V4.63069C0.25 2.54362 1.55896 1.20394 3.69378 1.0613L3.6942 0.49806C3.6942 0.223131 3.92727 0 4.21444 0C4.50162 0 4.73468 0.223131 4.73468 0.49806L4.73448 1.04858H9.29734L9.29768 0.49806C9.29768 0.223131 9.53075 0 9.81792 0ZM12.7358 5.91297H1.29048V10.64C1.29048 12.344 2.28102 13.2817 4.07967 13.2817H9.9466C11.7452 13.2817 12.7358 12.3612 12.7358 10.6904L12.7358 5.91297ZM10.1007 10.0916C10.3879 10.0916 10.621 10.3147 10.621 10.5896C10.621 10.8645 10.3879 11.0877 10.1007 11.0877C9.81355 11.0877 9.57771 10.8645 9.57771 10.5896C9.57771 10.3147 9.80731 10.0916 10.0945 10.0916H10.1007ZM7.02263 10.0916C7.30981 10.0916 7.54288 10.3147 7.54288 10.5896C7.54288 10.8645 7.30981 11.0877 7.02263 11.0877C6.73546 11.0877 6.49962 10.8645 6.49962 10.5896C6.49962 10.3147 6.72922 10.0916 7.01639 10.0916H7.02263ZM3.93809 10.0916C4.22526 10.0916 4.45833 10.3147 4.45833 10.5896C4.45833 10.8645 4.22526 11.0877 3.93809 11.0877C3.65092 11.0877 3.41438 10.8645 3.41438 10.5896C3.41438 10.3147 3.64468 10.0916 3.93185 10.0916H3.93809ZM10.1007 7.51048C10.3879 7.51048 10.621 7.73361 10.621 8.00853C10.621 8.28346 10.3879 8.50659 10.1007 8.50659C9.81355 8.50659 9.57771 8.28346 9.57771 8.00853C9.57771 7.73361 9.80731 7.51048 10.0945 7.51048H10.1007ZM7.02263 7.51048C7.30981 7.51048 7.54288 7.73361 7.54288 8.00853C7.54288 8.28346 7.30981 8.50659 7.02263 8.50659C6.73546 8.50659 6.49962 8.28346 6.49962 8.00853C6.49962 7.73361 6.72922 7.51048 7.01639 7.51048H7.02263ZM3.93809 7.51048C4.22526 7.51048 4.45833 7.73361 4.45833 8.00853C4.45833 8.28346 4.22526 8.50659 3.93809 8.50659C3.65092 8.50659 3.41438 8.28346 3.41438 8.00853C3.41438 7.73361 3.64468 7.51048 3.93185 7.51048H3.93809ZM9.29734 2.0447H4.73448L4.73468 2.68355C4.73468 2.95847 4.50162 3.18161 4.21444 3.18161C3.92727 3.18161 3.6942 2.95847 3.6942 2.68355L3.69383 2.05978C2.13989 2.18475 1.29048 3.08655 1.29048 4.63069V4.91685H12.7358L12.7358 4.63069C12.7386 3.81056 12.5083 3.17304 12.0511 2.73475C11.6499 2.34945 11.0633 2.11934 10.3388 2.0601L10.3382 2.68355C10.3382 2.95847 10.1051 3.18161 9.81792 3.18161C9.53075 3.18161 9.29768 2.95847 9.29768 2.68355L9.29734 2.0447Z" fill="#8F95B2"/>
</svg>
