<svg width="17" height="12" viewBox="0 0 17 12" fill="none" xmlns="http://www.w3.org/2000/svg">
<path fill-rule="evenodd" clip-rule="evenodd" d="M8.50127 3.55469C7.1511 3.55469 6.05664 4.64915 6.05664 5.99931C6.05664 7.34948 7.1511 8.44394 8.50127 8.44394C9.85143 8.44394 10.9459 7.34948 10.9459 5.99931C10.9459 4.64915 9.85143 3.55469 8.50127 3.55469ZM7.68639 5.99931C7.68639 5.54926 8.05121 5.18444 8.50127 5.18444C8.95132 5.18444 9.31614 5.54926 9.31614 5.99931C9.31614 6.44937 8.95132 6.81419 8.50127 6.81419C8.05121 6.81419 7.68639 6.44937 7.68639 5.99931Z" fill="#1D1812"/>
<path fill-rule="evenodd" clip-rule="evenodd" d="M16.5105 5.41291C14.6461 2.04842 11.6068 0.294922 8.50031 0.294922C5.39382 0.294922 2.35449 2.04842 0.490116 5.41291C0.307861 5.74187 0.305612 6.14744 0.482179 6.47787C2.3169 9.91151 5.37348 11.7032 8.50031 11.7032C11.6272 11.7032 14.6838 9.91151 16.5184 6.47787C16.695 6.14744 16.6927 5.74187 16.5105 5.41291ZM8.50031 10.0734C6.10537 10.0734 3.64408 8.74713 2.05606 5.95724C3.66698 3.22533 6.11533 1.92467 8.50031 1.92467C10.8853 1.92467 13.3337 3.22533 14.9446 5.95724C13.3566 8.74713 10.8952 10.0734 8.50031 10.0734Z" fill="#1D1812"/>
</svg>
