<svg width="12" height="21" viewBox="0 0 12 21" fill="none" xmlns="http://www.w3.org/2000/svg">
<path d="M10.7782 3.72249H7.44488C6.83121 3.72249 6.33377 4.21996 6.33377 4.8336V8.16694H10.7782C10.9045 8.16414 11.0244 8.22294 11.0995 8.32461C11.1747 8.42627 11.1958 8.55805 11.156 8.67805L10.3338 11.1225C10.258 11.3468 10.0483 11.4985 9.81154 11.5003H6.33377V19.8336C6.33377 20.1404 6.08499 20.3892 5.77821 20.3892H3.00043C2.69361 20.3892 2.44488 20.1404 2.44488 19.8336V11.5003H0.778212C0.47139 11.5003 0.222656 11.2515 0.222656 10.9447V8.72249C0.222656 8.41572 0.47139 8.16694 0.778212 8.16694H2.44488V4.8336C2.44488 2.379 4.43477 0.38916 6.88932 0.38916H10.7782C11.085 0.38916 11.3338 0.637893 11.3338 0.944716V3.16694C11.3338 3.47376 11.085 3.72249 10.7782 3.72249Z" fill="black"/>
</svg>
