<svg width="21" height="21" viewBox="0 0 21 21" fill="none" xmlns="http://www.w3.org/2000/svg">
<path fill-rule="evenodd" clip-rule="evenodd" d="M15.2237 0.38916H6.33485C3.26661 0.38916 0.779297 2.87647 0.779297 5.94472V14.8336C0.779297 17.9018 3.26661 20.3892 6.33485 20.3892H15.2237C18.292 20.3892 20.7793 17.9018 20.7793 14.8336V5.94472C20.7793 2.87647 18.292 0.38916 15.2237 0.38916ZM18.8349 14.8336C18.8287 16.8254 17.2155 18.4386 15.2237 18.4447H6.33485C4.34302 18.4386 2.72984 16.8254 2.72374 14.8336V5.94472C2.72984 3.95288 4.34302 2.3397 6.33485 2.3336H15.2237C17.2155 2.3397 18.8287 3.95288 18.8349 5.94472V14.8336ZM16.0571 6.22249C16.6707 6.22249 17.1682 5.72503 17.1682 5.11138C17.1682 4.49774 16.6707 4.00027 16.0571 4.00027C15.4434 4.00027 14.946 4.49774 14.946 5.11138C14.946 5.72503 15.4434 6.22249 16.0571 6.22249ZM10.7793 5.38916C8.01788 5.38916 5.7793 7.62774 5.7793 10.3892C5.7793 13.1506 8.01788 15.3892 10.7793 15.3892C13.5407 15.3892 15.7793 13.1506 15.7793 10.3892C15.7823 9.06216 15.2564 7.78868 14.3181 6.85036C13.3797 5.91204 12.1063 5.3862 10.7793 5.38916ZM7.72374 10.3892C7.72374 12.0767 9.09174 13.4447 10.7793 13.4447C12.4669 13.4447 13.8349 12.0767 13.8349 10.3892C13.8349 8.7016 12.4669 7.3336 10.7793 7.3336C9.09174 7.3336 7.72374 8.7016 7.72374 10.3892Z" fill="black"/>
</svg>
