<svg width="21" height="21" viewBox="0 0 21 21" fill="none" xmlns="http://www.w3.org/2000/svg">
<path fill-rule="evenodd" clip-rule="evenodd" d="M3.00152 0.38916H18.5571C19.7844 0.38916 20.7793 1.38408 20.7793 2.61138V18.1669C20.7793 19.3943 19.7844 20.3892 18.5571 20.3892H3.00152C1.77422 20.3892 0.779297 19.3943 0.779297 18.1669V2.61138C0.779297 1.38408 1.77422 0.38916 3.00152 0.38916ZM6.33485 17.0558C6.64167 17.0558 6.89041 16.8071 6.89041 16.5003V8.72249C6.89041 8.41572 6.64167 8.16694 6.33485 8.16694H4.66819C4.36136 8.16694 4.11263 8.41572 4.11263 8.72249V16.5003C4.11263 16.8071 4.36136 17.0558 4.66819 17.0558H6.33485ZM5.50152 7.05583C4.58104 7.05583 3.83485 6.30964 3.83485 5.38916C3.83485 4.46868 4.58104 3.72249 5.50152 3.72249C6.422 3.72249 7.16819 4.46868 7.16819 5.38916C7.16819 6.30964 6.422 7.05583 5.50152 7.05583ZM16.8904 17.0558C17.1972 17.0558 17.446 16.8071 17.446 16.5003V11.3892C17.4821 9.62338 16.1766 8.11641 14.4237 7.90027C13.1982 7.78833 12.0107 8.36072 11.3349 9.38916V8.72249C11.3349 8.41572 11.0861 8.16694 10.7793 8.16694H9.11263C8.80585 8.16694 8.55708 8.41572 8.55708 8.72249V16.5003C8.55708 16.8071 8.80585 17.0558 9.11263 17.0558H10.7793C11.0861 17.0558 11.3349 16.8071 11.3349 16.5003V12.3336C11.3349 11.4132 12.0811 10.6669 13.0015 10.6669C13.922 10.6669 14.6682 11.4132 14.6682 12.3336V16.5003C14.6682 16.8071 14.917 17.0558 15.2237 17.0558H16.8904Z" fill="black"/>
</svg>
