<svg width="15" height="14" viewBox="0 0 15 14" fill="none" xmlns="http://www.w3.org/2000/svg">
<path fill-rule="evenodd" clip-rule="evenodd" d="M5.52674 6.461C5.22049 6.461 4.97834 6.699 4.97834 7C4.97834 7.294 5.22049 7.539 5.52674 7.539H9.8V6.46112H12.698L11.578 5.34812C11.368 5.13812 11.368 4.79512 11.578 4.58512C11.788 4.36812 12.131 4.36812 12.341 4.57812L14.385 6.61512C14.49 6.72012 14.546 6.85312 14.546 7.00012C14.546 7.14012 14.49 7.28012 14.385 7.37812L12.341 9.41512C12.236 9.52012 12.096 9.57612 11.963 9.57612C11.823 9.57612 11.683 9.52012 11.578 9.41512C11.368 9.20512 11.368 8.86212 11.578 8.65212L12.698 7.53912H9.8V10.885C9.8 12.6 8.3827 14 6.63067 14H3.16221C1.4173 14 0 12.607 0 10.892V3.115C0 1.393 1.42442 0 3.16933 0H6.64491C8.3827 0 9.8 1.393 9.8 3.108V6.461H5.52674Z" fill="#424342"/>
</svg>
