<svg width="15" height="14" viewBox="0 0 15 14" fill="none" xmlns="http://www.w3.org/2000/svg">
<path fill-rule="evenodd" clip-rule="evenodd" d="M13.3813 8.106C13.6316 8.239 13.8248 8.449 13.9607 8.659C14.2254 9.093 14.2039 9.625 13.9464 10.094L13.4456 10.934C13.1809 11.382 12.6873 11.662 12.1794 11.662C11.929 11.662 11.6501 11.592 11.4211 11.452C11.2351 11.333 11.0205 11.291 10.7916 11.291C10.0834 11.291 9.48964 11.872 9.46818 12.565C9.46818 13.37 8.81004 14 7.98736 14H7.01446C6.18463 14 5.52649 13.37 5.52649 12.565C5.51218 11.872 4.91842 11.291 4.21021 11.291C3.97413 11.291 3.75952 11.333 3.58068 11.452C3.35176 11.592 3.06561 11.662 2.82239 11.662C2.30732 11.662 1.81372 11.382 1.54903 10.934L1.05542 10.094C0.790736 9.639 0.776429 9.093 1.04112 8.659C1.15558 8.449 1.37019 8.239 1.61341 8.106C1.81372 8.008 1.94248 7.847 2.0641 7.658C2.42178 7.056 2.20717 6.265 1.5991 5.908C0.890888 5.509 0.66197 4.62 1.06973 3.927L1.54903 3.101C1.96394 2.408 2.851 2.163 3.56637 2.569C4.18874 2.905 4.99711 2.681 5.36195 2.086C5.47641 1.89 5.54079 1.68 5.52649 1.47C5.51218 1.197 5.59087 0.938 5.72679 0.728C5.99148 0.294 6.47078 0.014 6.993 0H8.00167C8.53104 0 9.01034 0.294 9.27503 0.728C9.40379 0.938 9.48964 1.197 9.46818 1.47C9.45387 1.68 9.51825 1.89 9.63271 2.086C9.99755 2.681 10.8059 2.905 11.4354 2.569C12.1437 2.163 13.0379 2.408 13.4456 3.101L13.9249 3.927C14.3398 4.62 14.1109 5.509 13.3956 5.908C12.7875 6.265 12.5729 7.056 12.9377 7.658C13.0522 7.847 13.1809 8.008 13.3813 8.106ZM5.47617 7.00678C5.47617 8.10578 6.38469 8.98078 7.50782 8.98078C8.63095 8.98078 9.51801 8.10578 9.51801 7.00678C9.51801 5.90778 8.63095 5.02578 7.50782 5.02578C6.38469 5.02578 5.47617 5.90778 5.47617 7.00678Z" fill="#424342"/>
</svg>
