<svg width="18" height="12" viewBox="0 0 18 12" fill="none" xmlns="http://www.w3.org/2000/svg">
<path fill-rule="evenodd" clip-rule="evenodd" d="M9.00127 3.55469C7.6511 3.55469 6.55664 4.64915 6.55664 5.99931C6.55664 7.34948 7.6511 8.44394 9.00127 8.44394C10.3514 8.44394 11.4459 7.34948 11.4459 5.99931C11.4459 4.64915 10.3514 3.55469 9.00127 3.55469ZM8.18639 5.99931C8.18639 5.54926 8.55121 5.18444 9.00127 5.18444C9.45132 5.18444 9.81614 5.54926 9.81614 5.99931C9.81614 6.44937 9.45132 6.81419 9.00127 6.81419C8.55121 6.81419 8.18639 6.44937 8.18639 5.99931Z" fill="#1D1812"/>
<path fill-rule="evenodd" clip-rule="evenodd" d="M17.0105 5.41486C15.1461 2.05037 12.1068 0.296875 9.00032 0.296875C5.89382 0.296875 2.85449 2.05037 0.990116 5.41486C0.807861 5.74383 0.805612 6.14939 0.982179 6.47982C2.8169 9.91346 5.87348 11.7051 9.00032 11.7051C12.1272 11.7051 15.1838 9.91346 17.0184 6.47982C17.195 6.14939 17.1927 5.74383 17.0105 5.41486ZM9.00032 10.0754C6.60537 10.0754 4.14408 8.74909 2.55606 5.9592C4.16698 3.22728 6.61533 1.92663 9.00032 1.92663C11.3853 1.92663 13.8337 3.22728 15.4446 5.9592C13.8566 8.74909 11.3952 10.0754 9.00032 10.0754Z" fill="#1D1812"/>
</svg>
