<svg width="21" height="18" viewBox="0 0 21 18" fill="none" xmlns="http://www.w3.org/2000/svg">
<path d="M20.7481 2.51944C20.2321 3.2078 19.6083 3.80826 18.9009 4.29762C18.9009 4.47743 18.9009 4.65724 18.9009 4.84705C18.9065 8.11244 17.6022 11.2436 15.2803 13.5384C12.9583 15.8333 9.81296 17.1 6.54946 17.0544C4.66273 17.0608 2.80015 16.63 1.10765 15.7958C1.01638 15.7559 0.957529 15.6657 0.957873 15.566V15.4561C0.957873 15.3127 1.07411 15.1964 1.21748 15.1964C3.0721 15.1352 4.86054 14.4922 6.32978 13.3583C4.65111 13.3244 3.14073 12.33 2.44563 10.8009C2.41053 10.7174 2.42145 10.6216 2.47448 10.5481C2.52751 10.4747 2.61496 10.4342 2.70524 10.4413C3.21543 10.4926 3.73072 10.4451 4.22296 10.3014C2.36984 9.91678 0.977418 8.37833 0.77814 6.49533C0.771062 6.405 0.81154 6.31755 0.884962 6.26444C0.958373 6.21144 1.05412 6.20044 1.13761 6.23567C1.6349 6.45511 2.17173 6.57067 2.71523 6.57522C1.09145 5.50951 0.390084 3.48239 1.0078 1.64035C1.07156 1.46137 1.22475 1.32913 1.41107 1.29227C1.59738 1.25539 1.78936 1.31931 1.91643 1.46054C4.10762 3.79261 7.11834 5.18229 10.3137 5.33654C10.232 5.00994 10.1917 4.67429 10.194 4.33758C10.2239 2.57202 11.3163 0.999233 12.9599 0.355522C14.6033 -0.288178 16.4726 0.124589 17.6927 1.4006C18.5243 1.24217 19.3283 0.962833 20.0791 0.571455C20.1341 0.537122 20.2039 0.537122 20.2589 0.571455C20.2932 0.626477 20.2932 0.696244 20.2589 0.751266C19.8952 1.58402 19.2809 2.28247 18.5015 2.74921C19.184 2.67007 19.8544 2.50908 20.4985 2.26971C20.5527 2.2328 20.624 2.2328 20.6782 2.26971C20.7236 2.29049 20.7576 2.33023 20.7711 2.37835C20.7845 2.42648 20.7761 2.47809 20.7481 2.51944Z" fill="black"/>
</svg>
