<svg width="18" height="18" viewBox="0 0 18 18" fill="none" xmlns="http://www.w3.org/2000/svg">
<path d="M9 0C8.38037 0 7.875 0.505371 7.875 1.125C7.875 1.74463 8.38037 2.25 9 2.25C9.61963 2.25 10.125 1.74463 10.125 1.125C10.125 0.505371 9.61963 0 9 0ZM3.43213 2.30713C3.14209 2.30713 2.85644 2.41699 2.63672 2.63672C2.19727 3.07617 2.19727 3.78809 2.63672 4.22754C3.07617 4.66699 3.78809 4.66699 4.22754 4.22754C4.66699 3.78809 4.66699 3.07617 4.22754 2.63672C4.00781 2.41699 3.72217 2.30713 3.43213 2.30713ZM14.5679 2.30713C14.2778 2.30713 13.9922 2.41699 13.7725 2.63672C13.333 3.07617 13.333 3.78809 13.7725 4.22754C14.2119 4.66699 14.9238 4.66699 15.3633 4.22754C15.8027 3.78809 15.8027 3.07617 15.3633 2.63672C15.1436 2.41699 14.8579 2.30713 14.5679 2.30713ZM9 3.375C5.89307 3.375 3.375 5.89307 3.375 9C3.375 12.1069 5.89307 14.625 9 14.625C12.1069 14.625 14.625 12.1069 14.625 9C14.625 5.89307 12.1069 3.375 9 3.375ZM9 5.625C9.20654 5.625 9.41309 5.64697 9.61963 5.68213C8.5957 5.91943 7.875 6.8291 7.875 7.875C7.875 9.11865 8.88135 10.125 10.125 10.125C11.1709 10.125 12.0806 9.3999 12.3179 8.38037C12.353 8.58252 12.375 8.79346 12.375 9C12.375 10.8633 10.8633 12.375 9 12.375C7.13672 12.375 5.625 10.8633 5.625 9C5.625 7.13672 7.13672 5.625 9 5.625ZM1.125 7.875C0.505371 7.875 0 8.38037 0 9C0 9.61963 0.505371 10.125 1.125 10.125C1.74463 10.125 2.25 9.61963 2.25 9C2.25 8.38037 1.74463 7.875 1.125 7.875ZM16.875 7.875C16.2554 7.875 15.75 8.38037 15.75 9C15.75 9.61963 16.2554 10.125 16.875 10.125C17.4946 10.125 18 9.61963 18 9C18 8.38037 17.4946 7.875 16.875 7.875ZM3.43213 13.4429C3.14209 13.4429 2.85644 13.5527 2.63672 13.7725C2.19727 14.2119 2.19727 14.9238 2.63672 15.3633C3.07617 15.8027 3.78809 15.8027 4.22754 15.3633C4.66699 14.9238 4.66699 14.2119 4.22754 13.7725C4.00781 13.5527 3.72217 13.4429 3.43213 13.4429ZM14.5679 13.4429C14.2778 13.4429 13.9922 13.5527 13.7725 13.7725C13.333 14.2119 13.333 14.9238 13.7725 15.3633C14.2119 15.8027 14.9238 15.8027 15.3633 15.3633C15.8027 14.9238 15.8027 14.2119 15.3633 13.7725C15.1436 13.5527 14.8579 13.4429 14.5679 13.4429ZM9 15.75C8.38037 15.75 7.875 16.2554 7.875 16.875C7.875 17.4946 8.38037 18 9 18C9.61963 18 10.125 17.4946 10.125 16.875C10.125 16.2554 9.61963 15.75 9 15.75Z" fill="#424342"/>
</svg>
